<svg xmlns="http://www.w3.org/2000/svg" viewBox="0 0 1200 700" font-family="Inter, 'SF Pro Text', Helvetica, Arial, sans-serif">
  <defs>
    <marker id="a-ink" viewBox="0 0 12 12" refX="11" refY="6" markerWidth="12" markerHeight="12" orient="auto-start-reverse"><path d="M1 1 L11 6 L1 11" fill="none" stroke="#1A1A1A" stroke-width="1.6" stroke-linecap="round" stroke-linejoin="round"/></marker>
    <style>
      .title { font-size: 20px; font-weight: 700; fill: #1A1A1A; }
      .label { font-size: 15px; font-weight: 600; fill: #1A1A1A; }
      .text  { font-size: 13px; fill: #1A1A1A; }
      .muted { font-size: 12px; fill: #6B6B6B; }
      .proto { font-family: 'JetBrains Mono', Menlo, monospace; font-size: 11px; fill: #6B6B6B; }
      .pkg   { font-family: 'JetBrains Mono', Menlo, monospace; font-size: 12px; font-weight: 700; fill: #1A1A1A; }
      .comp  { fill: #FFFFFF; stroke: #F6821F; stroke-width: 1; }
      .store { fill: #F1F1F1; }
      .svc   { fill: #E6EEFC; stroke: #2F6FE0; stroke-width: 2; }
    </style>
  </defs>
  <rect width="1200" height="700" fill="#FFFFFF"/>
  <text x="40" y="44" class="title">Компоненты accounting.service.go</text>

  <rect x="300" y="80" width="860" height="440" rx="6" fill="#FFFFFF" stroke="#F6821F" stroke-width="2" stroke-dasharray="8 6"/>
  <text x="320" y="106" class="pkg">accounting.service.go</text>
  <text x="494" y="106" class="muted">[Go-сервис]</text>

  <rect x="40" y="120" width="170" height="84" rx="4" class="svc"/>
  <text x="56" y="152" class="pkg">core.service.go</text>
  <text x="56" y="172" class="muted">[Go-сервис]</text>
  <text x="56" y="192" class="text">сделки и админка</text>
  <line x1="210" y1="162" x2="592" y2="162" stroke="#1A1A1A" stroke-width="1.6" marker-end="url(#a-ink)"/>
  <text x="320" y="148" class="text">резервирует, проводит, читает</text>
  <text x="320" y="182" class="proto">[CQRS Accounting.*]</text>


  <rect x="600" y="120" width="240" height="84" class="comp"/>
  <text x="614" y="144" class="pkg">controller/nats_rpc/v1</text>
  <text x="614" y="164" class="muted">[NATS-контроллер]</text>
  <text x="614" y="186" class="text">24 обработчика, коды ошибок</text>

  <path d="M720 204 V226 H440 V242" fill="none" stroke="#1A1A1A" stroke-width="1.4" marker-end="url(#a-ink)"/>
  <line x1="720" y1="204" x2="720" y2="242" stroke="#1A1A1A" stroke-width="1.4" marker-end="url(#a-ink)"/>
  <path d="M720 226 H1000 V242" fill="none" stroke="#1A1A1A" stroke-width="1.4" marker-end="url(#a-ink)"/>

  <rect x="320" y="250" width="240" height="84" class="comp"/>
  <text x="334" y="274" class="pkg">usecase/ledger</text>
  <text x="334" y="294" class="muted">[usecase]</text>
  <text x="334" y="316" class="text">резерв, расчёт, пополнение</text>

  <rect x="600" y="250" width="240" height="84" class="comp"/>
  <text x="614" y="274" class="pkg">usecase/operationrequest</text>
  <text x="614" y="294" class="muted">[usecase]</text>
  <text x="614" y="316" class="text">заявки на пополнение и вывод</text>

  <rect x="880" y="250" width="240" height="84" class="comp"/>
  <text x="894" y="274" class="pkg">usecase/transfer</text>
  <text x="894" y="294" class="muted">[usecase]</text>
  <text x="894" y="316" class="text">переводы между счетами</text>

  <line x1="600" y1="292" x2="568" y2="292" stroke="#1A1A1A" stroke-width="1.4" marker-end="url(#a-ink)"/>
  <path d="M1000 334 V356 H580 V318 H568" fill="none" stroke="#1A1A1A" stroke-width="1.4" marker-end="url(#a-ink)"/>

  <line x1="400" y1="334" x2="400" y2="392" stroke="#1A1A1A" stroke-width="1.4" marker-end="url(#a-ink)"/>
  <line x1="545" y1="334" x2="545" y2="392" stroke="#1A1A1A" stroke-width="1.4" marker-end="url(#a-ink)"/>
  <line x1="780" y1="334" x2="780" y2="392" stroke="#1A1A1A" stroke-width="1.4" marker-end="url(#a-ink)"/>
  <path d="M1080 334 V380 H860 V392" fill="none" stroke="#1A1A1A" stroke-width="1.4" marker-end="url(#a-ink)"/>

  <rect x="320" y="400" width="190" height="84" class="comp"/>
  <text x="334" y="424" class="pkg">repo/cache/balance</text>
  <text x="334" y="444" class="muted">[кэш]</text>
  <text x="334" y="466" class="text">остатки на 5 мин</text>

  <rect x="530" y="400" width="190" height="84" class="comp"/>
  <text x="544" y="424" class="pkg">repo/formance</text>
  <text x="544" y="444" class="muted">[репозиторий]</text>
  <text x="544" y="466" class="text">проводки, локи, точность</text>

  <rect x="740" y="400" width="190" height="84" class="comp"/>
  <text x="754" y="424" class="pkg">repo/persistent</text>
  <text x="754" y="444" class="muted">[репозиторий]</text>
  <text x="754" y="466" class="text" style="font-size:12px">заявки, переводы, точность</text>

  <rect x="950" y="400" width="190" height="84" class="comp"/>
  <text x="964" y="424" class="pkg">repo/nats</text>
  <text x="964" y="444" class="muted">[публикатор]</text>
  <text x="964" y="466" class="text">события и имена</text>

  <line x1="720" y1="442" x2="732" y2="442" stroke="#1A1A1A" stroke-width="1.4" marker-end="url(#a-ink)"/>
  <line x1="930" y1="442" x2="942" y2="442" stroke="#1A1A1A" stroke-width="1.4" marker-end="url(#a-ink)"/>

  <line x1="420" y1="484" x2="420" y2="612" stroke="#1A1A1A" stroke-width="1.6" marker-end="url(#a-ink)"/>
  <path d="M560 484 V500 H420" fill="none" stroke="#1A1A1A" stroke-width="1.6"/>
  <text x="430" y="560" class="text">локи, кэш</text>
  <text x="430" y="578" class="proto">[Redis]</text>
  <line x1="650" y1="484" x2="650" y2="612" stroke="#1A1A1A" stroke-width="1.6" marker-end="url(#a-ink)"/>
  <text x="660" y="560" class="text">пишет, читает</text>
  <text x="660" y="578" class="proto">[HTTP, SDK v2]</text>
  <line x1="820" y1="484" x2="820" y2="612" stroke="#1A1A1A" stroke-width="1.6" marker-end="url(#a-ink)"/>
  <text x="830" y="560" class="text">хранит</text>
  <text x="830" y="578" class="proto">[SQL]</text>
  <line x1="980" y1="484" x2="980" y2="612" stroke="#1A1A1A" stroke-width="1.6" marker-end="url(#a-ink)"/>
  <text x="990" y="560" class="text">публикует</text>
  <text x="990" y="578" class="proto">[JetStream]</text>
  <path d="M1110 484 V520 H1130 V612" fill="none" stroke="#1A1A1A" stroke-width="1.6" marker-end="url(#a-ink)"/>

  <rect x="330" y="620" width="170" height="56" rx="4" class="store"/>
  <text x="346" y="653" class="label">Redis</text>
  <rect x="580" y="620" width="140" height="56" rx="4" class="store"/>
  <text x="596" y="653" class="label">Formance</text>
  <rect x="750" y="620" width="150" height="56" rx="4" class="store"/>
  <text x="766" y="653" class="label">PostgreSQL</text>
  <rect x="920" y="620" width="150" height="56" rx="4" class="store"/>
  <text x="936" y="653" class="label">NATS JetStream</text>
  <rect x="1080" y="620" width="110" height="56" rx="4" class="svc"/>
  <text x="1092" y="645" class="pkg">trader</text>
  <text x="1092" y="663" class="proto">Trader.List</text>
</svg>
